<svg xmlns="http://www.w3.org/2000/svg" width="121.376" height="123.663" viewBox="0 0 121.376 123.663">
  <g id="Group_73" data-name="Group 73" transform="translate(-1726.58 -912.492)">
    <g id="Group_50" data-name="Group 50" transform="translate(1726.58 912.491)" opacity="0.5">
      <path id="Path_165" data-name="Path 165" d="M118.082,287.534c11.472-21.083-8.061-83.711-39.685-100.763s-63.248,17.982-74.72,39.375c-11.472,21.083,4.961,52.087,36.585,69.139C71.886,312.027,106.611,308.617,118.082,287.534Z" transform="translate(-0.021 -182.238)" fill="#ffc108"/>
    </g>
    <g id="Group_47" data-name="Group 47" transform="translate(1740.946 927.128)">
      <path id="Path_165-2" data-name="Path 165" d="M90.134,262.608c8.756-16.092-6.153-63.9-30.291-76.91S11.567,199.423,2.811,215.752c-8.756,16.092,3.786,39.757,27.924,52.772C54.874,281.3,81.378,278.7,90.134,262.608Z" transform="translate(-0.021 -182.238)" fill="#ffc108"/>
    </g>
  </g>
</svg>
