<svg xmlns="http://www.w3.org/2000/svg" xmlns:xlink="http://www.w3.org/1999/xlink" width="1920" height="1080" viewBox="0 0 1920 1080">
  <defs>
    <clipPath id="clip-path">
      <rect id="Rectangle_1" data-name="Rectangle 1" width="1920" height="1080" transform="translate(654 -144)"/>
    </clipPath>
  </defs>
  <g id="Group_1" data-name="Group 1" transform="translate(-1508 -833)">
    <g id="Mask_Group_1" transform="translate(854 977)" clip-path="url(#clip-path)">
      <g id="Group_71">
        <g id="Group_45" transform="translate(1130.406 -445.469) rotate(-3)" opacity="0.5">
          <path id="Path_163" d="M660.6,156.2c0,213.6,384.5,446.8,596.5,446.8S1697,369.8,1697,156.2s-89.4-358.4-402.4-196.4C1105.8,57.5,660.6-57.4,660.6,156.2Z" fill="#ffc108" stroke="#ffc108" stroke-width="1"/>
        </g>
        <path id="Path_163-2" d="M660.6,156.2c0,213.6,384.5,446.8,596.5,446.8S1697,369.8,1697,156.2s-89.4-358.4-402.4-196.4C1105.8,57.5,660.6-57.4,660.6,156.2Z" transform="translate(1178.406 -469.469) rotate(-3)" fill="#ffc108" stroke="#ffc108" stroke-width="1"/>
      </g>
    </g>
  </g>
</svg>
