<?xml version="1.0" encoding="utf-8"?>
<!-- Generator: Adobe Illustrator 19.0.0, SVG Export Plug-In . SVG Version: 6.00 Build 0)  -->
<svg version="1.1" id="_x30_315a8ac-3017-4957-93c4-92e478eebb20"
	 xmlns="http://www.w3.org/2000/svg" xmlns:xlink="http://www.w3.org/1999/xlink" x="0px" y="0px" viewBox="212 91 1036 612"
	 style="enable-background:new 212 91 1036 612;" xml:space="preserve">
<style type="text/css">
	.st0{opacity:0.2;fill:#FFC107;enable-background:new    ;}
	.st1{fill:#F5F5F5;}
	.st2{fill:url(#SVGID_1_);}
	.st3{fill:#535461;}
	.st4{fill:#FFFFFF;}
	.st5{fill:url(#SVGID_2_);}
	.st6{fill:none;stroke:#535461;stroke-width:2;stroke-miterlimit:10;}
	.st7{fill:#FFC107;}
	.st8{fill:#DDDBE2;}
	.st9{fill:#2F2E41;}
	.st10{fill:#FFB8B8;}
	.st11{opacity:0.1;enable-background:new    ;}
	.st12{fill:#D0CDE1;}
	.st13{fill:#3F3D56;}
	.st14{fill:#E6E8EC;}
	.st15{opacity:0.2;enable-background:new    ;}
</style>
<title>web_devices</title>
<path class="st0" d="M363.4,91.1c-8.1-0.2-16.3,0-23.9,2.3c-20.6,6.3-30.3,27-27.1,44.9s16.2,33.4,29.7,47.7
	c13.5,14.2,28.2,28.3,35.6,45.3c3.7,8.5,5.4,18,1.7,26.5c-5.8,13.1-23.3,20.4-40.1,21.9s-33.6-1.4-50.5-2.4
	c-7.1-0.4-14.3-0.5-21,1.5c-7.3,2.1-13.4,6.3-19,10.8c-21.9,17.4-39.3,41.1-36.5,66c3.2,28.2,31.7,50.5,63,62.5
	c10.4,4,21.3,7.2,30.4,12.8c24,14.9,29.4,42.9,27,67.6c-2.4,24.7-10.5,49.5-6,73.9c5.3,28.5,28.9,54.2,60.7,66.3
	c28.4,10.7,63.8,10,89-5.1c12.3-7.4,21.5-17.6,29.6-28.2c12-15.7,21.9-32.8,29.5-51c3.5-8.5,6.8-17.6,15-23.5
	c5-3.6,11.5-5.7,17.9-7.2c19.3-4.8,39.7-6.1,59.2-10.3s39.1-12.2,49.7-26.3c15-20,8-45.6,8.1-69.1c0.1-53.7,39.1-101.7,53.5-154
	c4.7-17.1,6.5-36-4-51.3c-7.1-10.4-19.2-17.8-31.8-23.6c-27.8-12.7-59.4-18.3-90.5-23.8c-43.2-7.6-95.7-8.6-129.2-33.4
	C451.2,108,407.2,91.1,363.4,91.1z"/>
<ellipse class="st1" cx="783" cy="578.5" rx="465" ry="124.5"/>
<linearGradient id="SVGID_1_" gradientUnits="userSpaceOnUse" x1="887.05" y1="99" x2="887.05" y2="464.72" gradientTransform="matrix(1 0 0 -1 -82 652)">
	<stop  offset="0" style="stop-color:#808080;stop-opacity:0.25"/>
	<stop  offset="0.54" style="stop-color:#808080;stop-opacity:0.12"/>
	<stop  offset="1" style="stop-color:#808080;stop-opacity:0.1"/>
</linearGradient>
<path class="st2" d="M1138.4,510.9h-64.2c1.5-3,2.2-6.2,2.2-9.6V208.8c0-11.9-9.6-21.5-21.5-21.5l0,0H557.5
	c-11.9,0-21.5,9.6-21.5,21.5c0,0,0,0,0,0v292.6c0,3.3,0.8,6.6,2.2,9.6h-66.5c-3.1,0-5.7,2.5-5.7,5.7l0,0v4.6
	c0,17.6,14.3,31.8,31.8,31.8h614.4c17.6,0,31.8-14.2,31.8-31.8l0,0v-4.6C1144,513.5,1141.5,510.9,1138.4,510.9z M742.5,529.1
	l-5.5-6.3h136.7l-6.1,6.3L742.5,529.1z"/>
<path class="st3" d="M565.4,191.4H1047c12.8,0,23.3,10.4,23.3,23.3v281.5c0,12.8-10.4,23.3-23.3,23.3H565.4
	c-12.8,0-23.3-10.4-23.3-23.3V214.7C542.1,201.8,552.5,191.4,565.4,191.4z"/>
<rect x="553.2" y="239.2" class="st4" width="504.8" height="268"/>
<circle class="st4" cx="805.6" cy="215.9" r="4.5"/>
<path class="st3" d="M883.5,507.7l-17.3,17.8H743.9l-15.7-17.8H479.3c-3.1,0-5.6,2.5-5.6,5.6v4.5c0,17.2,13.9,31.1,31.1,31.1h600.5
	c17.2,0,31.1-13.9,31.1-31.1v-4.5c0-3.1-2.5-5.6-5.6-5.6L883.5,507.7z"/>
<linearGradient id="SVGID_2_" gradientUnits="userSpaceOnUse" x1="685.945" y1="69.39" x2="685.945" y2="403.35" gradientTransform="matrix(1 0 0 -1 -82 652)">
	<stop  offset="0" style="stop-color:#808080;stop-opacity:0.25"/>
	<stop  offset="0.54" style="stop-color:#808080;stop-opacity:0.12"/>
	<stop  offset="1" style="stop-color:#808080;stop-opacity:0.1"/>
</linearGradient>
<path class="st5" d="M710.4,248.6H497.5c-10.8,0-19.5,8.7-19.5,19.5v295c0,10.8,8.8,19.5,19.5,19.5h212.9c10.8,0,19.5-8.7,19.5-19.5
	v-295C729.9,257.4,721.2,248.6,710.4,248.6z"/>
<path class="st3" d="M500.9,252.6h206c11,0,20,9,20,20v287c0,11-9,20-20,20h-206c-11,0-20-9-20-20v-287
	C480.9,261.6,489.9,252.6,500.9,252.6z"/>
<rect x="493.4" y="283.6" class="st4" width="221" height="265.1"/>
<circle class="st4" cx="602.9" cy="267.6" r="3"/>
<circle class="st4" cx="602.9" cy="563.7" r="9"/>
<path class="st6" d="M415.7,627.3c0,0-13.3-45,2.5-78.1c6.7-13.9,8.7-29.5,5.8-44.6c-1.5-7.2-3.6-14.2-6.3-20.9"/>
<path class="st7" d="M427.5,462.6c0,5.5-10,21.5-10,21.5s-10-16-10-21.5c0-5.5,4.5-10,10-10S427.5,457.1,427.5,462.6z"/>
<path class="st7" d="M444,493.2c-3,4.6-20.1,12.6-20.1,12.6s0.3-18.9,3.3-23.5c2.8-4.8,8.9-6.4,13.7-3.6s6.4,8.9,3.6,13.7
	C444.3,492.7,444.2,492.9,444,493.2z"/>
<path class="st7" d="M443.2,545.4c-4.9,2.5-23.7,0.8-23.7,0.8s9.8-16.1,14.7-18.6c5-2.3,11,0,13.2,5
	C449.6,537.3,447.8,542.9,443.2,545.4L443.2,545.4z"/>
<path class="st7" d="M433.8,584.8c-4.4,3.3-23.2,4.8-23.2,4.8s6.9-17.5,11.4-20.8c4.6-3.1,10.8-1.8,13.9,2.8
	C438.6,575.8,437.8,581.5,433.8,584.8z"/>
<path class="st7" d="M402.9,506.9c4,3.8,22.4,7.8,22.4,7.8s-4.5-18.3-8.5-22.2c-3.8-4-10.1-4.2-14.1-0.5s-4.2,10.1-0.5,14.1
	C402.5,506.5,402.7,506.7,402.9,506.9L402.9,506.9z"/>
<path class="st7" d="M392.5,553.1c4.9,2.5,23.7,0.8,23.7,0.8s-9.8-16.1-14.7-18.6c-4.8-2.7-10.9-1-13.6,3.8
	c-2.7,4.8-1,10.9,3.8,13.6C391.9,552.9,392.2,553,392.5,553.1L392.5,553.1z"/>
<path class="st7" d="M388.5,599.4c4.4,3.3,23.2,4.8,23.2,4.8s-6.9-17.5-11.4-20.8c-4.6-3.1-10.8-1.8-13.9,2.8
	C383.6,590.4,384.5,596.1,388.5,599.4z"/>
<path class="st8" d="M928.5,627c0,0.1-0.1,0.2-0.1,0.3c-0.7,1.7-1.2,3.5-1.6,5.3c0.2-0.8,0.5-1.6,0.8-2.4
	C928.1,629.2,928.4,628.1,928.5,627z"/>
<path class="st8" d="M833.4,633.4c-0.5,0.1-1,0.8-1.5,1.8l0.2-0.1c0.4-0.1,1.2-1,2.1-2.3C834,633.1,833.7,633.3,833.4,633.4z"/>
<g>
	<rect x="1095" y="154.4" class="st9" width="59.5" height="86.7"/>
	<path class="st10" d="M1143,194.4c0,0-2.2,42.8,17.5,44.5c13.8,1.2-27,39.1-27,39.1l-35.1-48.6c0,0,26.3,2.7,9.4-27L1143,194.4z"/>
	<path class="st11" d="M1098.4,229.5l11.1,15.4l24,33.2c0,0,20-18.6,27.3-30.2c2.7-4.4,3.6-7.7,1-8.7c0,0,0,0,0,0
		c-0.4-0.1-0.8-0.2-1.2-0.3c0,0,0,0-0.1,0c-1.2-0.1-2.3-0.4-3.4-0.8c-16.2-6-14.2-43.8-14.2-43.8l-35.1,8.1
		c11.3,19.8,3.3,25.2-3.3,26.6c-1.4,0.3-2.9,0.5-4.4,0.5C1099.1,229.6,1098.4,229.5,1098.4,229.5z"/>
	<path class="st9" d="M1088.1,159.3c6.4,19,16.3,36.4,36.4,36.4c20.1,0,35.2-16.3,36.4-36.4c1.4-25.6-15.8-36.5-36.4-36.4
		C1100.2,123,1080.5,136.7,1088.1,159.3z"/>
	<path class="st10" d="M1174,468.4l-9.4,66.1c0,0,8.1,40.5,4,68.8l-4,29.7h-18.9l-5.4-31c0,0-5.4-32.4-5.4-47.2
		c0,0-14.8-67.5-5.4-81L1174,468.4z"/>
	<path class="st10" d="M1059.3,464.4l9.4,70.2c0,0-8.1,40.5-4,68.8l4,29.7h18.9l5.4-31c0,0,5.4-32.4,5.4-47.2c0,0,14.8-71.5,5.4-85
		L1059.3,464.4z"/>
	<path class="st9" d="M1078.2,629.1c0,0-10.8-4-12.1,1.3s-4,33.7-4,33.7s-8.1,12.1-13.5,13.5c-5.4,1.3-17.5,18.9-2.7,20.2
		s29.7-4,29.7-6.7s5.4-4,8.1-4s12.1-4,10.8-8.1s-5.4-51.3-5.4-51.3L1078.2,629.1z"/>
	<path class="st9" d="M1155.1,629.1c0,0,10.8-4,12.1,1.3s4,33.7,4,33.7s8.1,12.1,13.5,13.5c5.4,1.3,17.5,18.9,2.7,20.2
		s-29.7-4-29.7-6.7s-5.4-4-8.1-4s-12.1-4-10.8-8.1s5.4-51.3,5.4-51.3L1155.1,629.1z"/>
	<circle class="st10" cx="1122.7" cy="182.3" r="28"/>
	<path class="st10" d="M1017.4,336.1c0,0,56.7,24.3,62.1-1.4c3.3-16,5.6-32.3,6.8-48.6c0,0,0,0,0,0c0.8-0.5,28.7-17.6,23.2-41.3
		c-1.3-5.1-3.7-9.9-7-14c0,0-0.8-0.5-2.2-1.3c-1.7-0.9-3.4-1.7-5.1-2.3c-9.5-3.6-25.4-5.7-29.1,18.5c-5.4,35.1-5.4,72.9-5.4,72.9
		s-16.2,9.5-37.8,0s-43.2-4-44.5,8.1C976.9,338.8,1017.4,336.1,1017.4,336.1z"/>
	<path class="st10" d="M1160.5,239l0.3,9L1164,349l0.5,16.8l47.2,52.6c0,0,9.4,28.3,29.7,32.4s-13.5-39.1-13.5-39.1l-45.9-67.5
		l-0.1-2.3c-0.5-18.9,1.1-37.8,4.7-56.4c1.3-6.9,1.6-14,0.8-21c-1.9-15.1-14.3-21.6-21.6-24.2c-1.3-0.5-2.7-0.9-4.1-1.2c0,0,0,0,0,0
		C1161.2,239.1,1160.8,239,1160.5,239C1160.6,239,1160.6,239,1160.5,239z"/>
	<path class="st12" d="M1084.9,336.1v5.4c19.7,24.1,63.2,12.7,79.1,7.5c3.7-1.2,5.9-2.1,5.9-2.1c-0.8-1.7-1.3-3.5-1.3-5.4v-12.1
		c0-4-1.3-1.4-2.7-2.7s4-9.5,4-9.5c13.5-8.1,5.4-31,5.4-31l-9.4-20.3v-25.5c-1.3-0.5-2.7-0.9-4.1-1.2c0,0,0,0,0,0
		c-0.4-0.1-0.8-0.2-1.2-0.3c0,0,0,0-0.1,0c-1.2-0.1-2.3-0.4-3.4-0.8c-2.5,5.2-8,12.1-19.6,12.9c-13.8,1-26.9-13.9-33-22
		c-1.4,0.3-2.9,0.5-4.4,0.5c-1.7-0.9-3.4-1.7-5.1-2.3l6,25.2c5.3,13.3-14.2,33-14.8,33.7c0,0,0,0,0,0v14.9l1.3,16.2l1.3,4l-2.7,4
		l1.3,4l-1.3,2.7C1084.9,334.8,1084.9,333.5,1084.9,336.1z"/>
	<path class="st9" d="M1167.3,345.6l4-1.3c0,0,48.6,121.5,16.2,126.9s-56.7,14.8-62.1,5.4s-2.7-43.2-2.7-43.2l-5.4-1.3
		c0,0,9.4,49.9-9.4,45.9c-18.9-4-71.5-10.8-71.5-16.2s48.6-122,48.6-122S1105.2,352.3,1167.3,345.6z"/>
	<circle class="st9" cx="1124.5" cy="116.2" r="14.4"/>
	<path class="st9" d="M1141.7,108.6c0-7.4-5.6-13.5-12.9-14.3c0.5,0,1-0.1,1.4-0.1c7.9,0,14.4,6.4,14.4,14.4s-6.4,14.4-14.4,14.4
		c-0.5,0-1,0-1.4-0.1C1136.1,122.1,1141.7,115.9,1141.7,108.6z"/>
	<path class="st9" d="M1136,146.2c0,0,0.3-1.7,12,2.7c11.7,4.4,18.7,36.8,12.9,55.9c-2.4,7.7-0.4,13.2,2.7,17.1
		c11.8,14.5,7.1,36.4-10,43.8c-0.5,0.2-1,0.4-1.5,0.6l-7.3,4.4c0,0,9.3-12.3,4.7-28c-4.1-13.4-4.6-27.6-1.5-41.3
		c0.5-2.3,1.1-4.7,1.8-7.1c5.9-20.5,3-18.1-17.5-38.7c0,0-11.7,8.8-22,13.2c-10.3,4.4-19,8.8-11.7,23.4
		c7.3,14.7,24.9,27.8,13.2,46.9s-13.2,11.7-11.7,19l0,0l1.5,7.3l-8.8-8.8l5.9,11.7c0,0-19,0-24.9-14.7l-2.9,2.9
		c0,0-11.7-20.5,10.3-39.6c0,0,7.3-4.4-2.9-19s-2.4-46.2,10.8-52S1136,146.2,1136,146.2z"/>
</g>
<g>
	<path class="st13" d="M578.5,391.7v29.3c0,0.6-0.5,1-1,1h-0.7v152.5c0,8.8-7.1,15.9-15.9,15.9h-95.3c-8.8,0-15.9-7.1-15.9-15.9
		c0,0,0,0,0,0V427.3h-0.5c-0.4,0-0.7-0.3-0.7-0.7v-16.7c0-0.4,0.3-0.7,0.7-0.7c0,0,0,0,0,0h0.5v-6.3h-0.5c-0.4,0-0.8-0.3-0.8-0.8
		v-16.4c0-0.4,0.3-0.8,0.8-0.8h0.5v-8.6h-0.5c-0.4,0-0.7-0.3-0.7-0.7c0,0,0,0,0,0v-9c0-0.4,0.3-0.7,0.7-0.7h0.5V348
		c0-8.8,7.1-15.9,15.9-15.9h95.3c8.8,0,15.9,7.1,15.9,15.9v42.7h0.7C578,390.6,578.5,391.1,578.5,391.7z"/>
	<path class="st14" d="M502.3,340.2h15.5c0.6,0,1.1,0.5,1.1,1.1v1.3c0,0.6-0.5,1.1-1.1,1.1h-15.5c-0.6,0-1.1-0.5-1.1-1.1v-1.3
		C501.2,340.7,501.7,340.2,502.3,340.2z"/>
	<circle class="st14" cx="523.6" cy="342" r="2"/>
	<path class="st7" d="M569.1,351.1v224.6c0,5.6-4.5,10.1-10.1,10.1h-91.2c-5.6,0-10.1-4.5-10.1-10.1c0,0,0,0,0,0V351.1
		c0-5.6,4.5-10.1,10.1-10.1c0,0,0,0,0,0h13.6v1.8c0,4.6,3.7,8.3,8.3,8.3h46.4c4.6,0,8.3-3.7,8.3-8.3V341H559
		C564.6,341,569.1,345.5,569.1,351.1C569.1,351.1,569.1,351.1,569.1,351.1z"/>
	<rect x="462.2" y="414.6" class="st15" width="103.4" height="50.4"/>
	<rect x="462.2" y="491" class="st13" width="103.4" height="50.4"/>
	<circle class="st4" cx="554.9" cy="368.4" r="8.9"/>
	<polygon class="st13" points="558.9,368.1 555.2,368.1 555.2,364.4 554.6,364.4 554.6,368.1 550.9,368.1 550.9,368.7 554.6,368.7 
		554.6,372.4 555.2,372.4 555.2,368.7 558.9,368.7 	"/>
	<path class="st4" d="M503.8,525.6c2.7,10,12,16.2,12,16.2s4.9-10,2.2-20c-2.7-10-12-16.2-12-16.2S501.1,515.5,503.8,525.6z"/>
	<path class="st7" d="M507.8,523.4c7.4,7.2,8.3,18.3,8.3,18.3s-11.1-0.6-18.6-7.8s-8.3-18.3-8.3-18.3S500.4,516.2,507.8,523.4z"/>
	<path class="st4" d="M528.4,525.6c-2.7,10-12,16.2-12,16.2s-4.9-10-2.2-20c2.7-10,12-16.2,12-16.2S531.1,515.5,528.4,525.6z"/>
	<path class="st7" d="M524.4,523.4c-7.4,7.2-8.3,18.3-8.3,18.3s11.1-0.6,18.6-7.8s8.3-18.3,8.3-18.3S531.9,516.2,524.4,523.4z"/>
	<rect x="484.5" y="406.6" class="st13" width="103.4" height="50.4"/>
	<rect x="535.8" y="423.9" class="st4" width="0.9" height="33.2"/>
	<circle class="st7" cx="536.2" cy="424.3" r="4.7"/>
	<path class="st4" d="M536.2,444.3c0,0-0.7-14.4-14.4-12.7"/>
</g>
</svg>
